<?xml version="1.0" encoding="UTF-8" standalone="no"?>
<!-- Created with Inkscape (http://www.inkscape.org/) -->

<svg
   width="175.03381mm"
   height="152.14175mm"
   viewBox="0 0 661.54514 575.02396"
   version="1.1"
   id="svg5"
   xml:space="preserve"
   xmlns:inkscape="http://www.inkscape.org/namespaces/inkscape"
   xmlns:sodipodi="http://sodipodi.sourceforge.net/DTD/sodipodi-0.dtd"
   xmlns="http://www.w3.org/2000/svg"
   xmlns:svg="http://www.w3.org/2000/svg"><sodipodi:namedview
     id="namedview7"
     pagecolor="#ffffff"
     bordercolor="#666666"
     borderopacity="1.0"
     inkscape:showpageshadow="2"
     inkscape:pageopacity="0.0"
     inkscape:pagecheckerboard="0"
     inkscape:deskcolor="#d1d1d1"
     inkscape:document-units="mm"
     showgrid="false" /><defs
     id="defs2" /><g
     inkscape:label="Layer 1"
     inkscape:groupmode="layer"
     id="layer1"
     transform="translate(-21.145282,-235.14705)"><path
       style="fill:#212020;stroke:none"
       d="m 85.821068,613.79958 c -2.308,3.74 -4.752,7.562 -7.518,10.985 -9.569,11.843 -46.128,48.386 -10.482,50.015 -6.703,12.039 -15.486,22.771 -21.971,35 -2.619,4.94 -3.996,14.755 -0.171,19.581 3.271,4.126 8.674,2.814 13.142,2.508 10.203,-0.698 19.98,-2.022 30,-4.089 -6.199,8.758 -23.475,34.838 -12.66,44.2 7.269,6.292 20.873,5.191 29.750002,4.174 17.218,-1.972 34.593,-1.374 51.91,-1.374 48.757,0 96.295,0.058 145,3.914 22.946,1.817 46.509,2.803 69,7.973 29.812,6.853 59.868,14.579 90,19.863 10.298,1.806 24.633,7.249 33.957,-0.169 9.193,-7.314 14.034,-21.536 19.587,-31.581 11.214,-20.285 23.192,-40.482 35.696,-60 22.666,-35.381 46.715,-70.9 74.134,-102.816 10.532,-12.258 25.173,-22.288 34.633,-35.274 9.362,-12.852 0.701,-28.626 -14.007,-29.91 4.215,-10.618 17.405,-13.762 21.103,-24.001 4.51,-12.491 -9.547,-16.285 -18.103,-12.999 4.287,-4.693 10.775,-8.923 13.145,-15.001 4.784,-12.267 -12.075,-22.085 -21.145,-25.999 13.96,-21.097 26.811,-44.345 35.808,-68 2.745,-7.217 9.148,-18.587 4.299,-25.956 -5.511,-8.374 -20.266,-7.869 -29.107,-8.058 -24.232,-0.517 -46.941,1.049 -71,3.014 -2.866,-22.196 -15.163,-44.504 -28.497,-62 -67.796,-88.96 -206.888,-88.221 -299.503,-40.741 -14.295,7.329 -27.667,17.385 -38.815,28.911 -3.365,3.479 -4.793,9.048 -8.575,11.976 -4.668,3.613 -13.071,4.189 -18.61,6.279 -10.285,3.882 -19.784,9.687 -28.83,15.873 -13.032,8.912 -19.039,23.563 -30.383,33.268 -5.25,4.492 -13.565,1.803 -19.787,2.028 -18.163002,0.656 -46.493002,-2.324 -57.031002,16.41 -4.674,8.309 -1.324,18.942 2.343,26.996 8.95,19.657 25.664,36.787 41.688,50.816 5.539002,4.85 20.061002,13.556 20.387002,21.899 0.126,3.199 -4.388,6.28 -6.386,8.286 -6.068,6.091 -12.169002,12.477 -17.754002,19.014 -21.124,24.726 -44.327,50.257 -59.938,78.985 -3.578,6.584 -9.868,14.659 -9.983,22.424 -0.24,16.106 23.794,12.139 33.674,9.561 10.177,-2.654 20.674,-3.982 31,-5.985 m 486.000002,-212 -4,-2 c -0.836,1.758 -1.628,3.433 -2.803,5.005 -9.858,13.186 -12.281,-8.874 -22.182,-1.571 -8.326,6.142 -13.707,14.893 -23.015,20.229 -34.347,19.691 -77.699,29.36 -117,30.322 -16.903,0.414 -33.256,-2.266 -50,-2.985 5.522,-18.766 24.953,-14.766 40,-11.905 4.423,0.841 12.766,5.107 16.303,0.471 4.825,-6.325 -9.731,-24.669 -11.403,-31.566 -6.748,-27.822 15.011,-57.602 44.1,-57.996 4.58,-0.062 17.573,-1.024 14.029,-8.999 -7.83,-17.626 -39.956,-0.821 -49.029,6.868 -25.319,21.457 -29.24,45.044 -19,75.127 -4.815,-0.894 -13.529,0.695 -17.502,-2.028 -4.911,-3.366 -8.613,-14.761 -11.651,-19.972 -15.778,-27.068 -13.9,-63.296 -20.96,-94 -3.063,-13.321 -5.807,-32.279 -18.902,-39.911 -18.111,-10.555 -43.149,16.601 -53.946,27.911 -3.288,3.445 -6.03,8.818 -10.129,11.307 -6.101,3.705 -20.763,-0.307 -27.91,-0.307 19.219,-27.28 62.469,-39.043 93,-46.627 78.021,-19.379 179.329,-7.187 225.91,65.627 15.342,23.983 20.915,49.533 26.09,77 m -217,22 c -5.49,4.183 -9.769,8.792 -12.88,15 -1.667,3.328 -2.335,8.754 -5.539,10.987 -5.629,3.923 -16.03,2.492 -22.581,4.453 -16.885,5.054 -28.349,23.687 -23,40.56 -39.443,23.021 -105.601,35.643 -146,9 8.712,-4.671 2.301,-16.422 1.285,-25 -1.889,-15.964 -2.232,-40.162 9.044,-52.911 6.822,-7.713 21.039,-19.358 32.567,-13.732 3.752,1.831 5.337,6.413 8.405,9.086 8.195,7.139 21.592,9.923 31.698,5.562 18.107,-7.812 9.53,-34.443 23.016,-46.831 28.256,-25.955 64.991,-0.536 86.409,20.527 7.204,7.084 14.41,13.295 17.576,23.299 m -316.000002,183 c 9.82,-29.266 36.849,-55.872 56.385,-78.985 8.006002,-9.472 17.233002,-23.707 28.615002,-29.015 30.858,45.224 90.675,38.14 137,24.796 12.11,-3.489 27.802,-14.671 40,-14.957 6.135,-0.144 12.306,5.366 18,7.271 10.763,3.599 22.739,5.029 34,5.8 56.507,3.87 114.091,1.056 166,-23.613 27.158,-12.906 53.056,-33.505 64.255,-62.297 6.72,-17.278 3.757,-34.11 3.745,-52 19.227,-0.825 37.723,-2.233 57,-2.004 4.636,0.055 17.847,-1.483 20.932,2.746 2.24,3.071 -1.557,9.32 -2.732,12.258 -4.819,12.049 -11.232,23.293 -16.837,35 -6.318,13.195 -15.848,24.82 -23.818,37 -16.481,25.185 -33.038,49.849 -51.07,74 -6.914,9.26 -15.491,31.804 -26.49,35.968 -16.777,6.351 -42.461,2.322 -59.985,1.121 -31.018,-2.124 -63.92,-3.128 -95,-1 -39.557,2.709 -78.931,6.593 -118,14.006 -10.043,1.906 -20.28,4.221 -30,7.424 -4.826,1.591 -9.885,5.338 -15,5.623 -9.361,0.522 -19.386,-6.39 -29,-7.053 -15.268,-1.051 -28.62,7.028 -43,6.644 -13.175,-0.352 -25.523,-8.387 -39,-8.718 -25.849002,-0.635 -50.458002,8.888 -76.000002,9.985 m 230.000002,-184 c -5.924,20.086 21.638,25.363 32.442,11.907 4.063,-5.061 7.176,-16.343 -2.423,-17.226 -5.825,-0.535 -7.609,10.652 -13.02,13.1 -6.495,2.938 -11.995,-5.008 -16.999,-7.781 m 112,-5 1,1 -1,-1 m -166,8 v 2 h -5 v -2 h 5 m 20,49 c 12.115,4.125 22.527,11.695 27,24 h 2 c 8.372,-13.818 4.277,-30.864 9,-46 -12.665,1.036 -32.038,10.515 -38,22 m -28,-17 c -3.162,6.633 -7.217,13.278 -15.576,13.096 -3.772,-0.082 -12.666,-5.557 -15.381,-1.685 -4.045,5.771 5.978,11.534 9.957,13.251 18.3,7.897 31.47,-7.36 23,-24.662 h -2 m 438,33 c -8.657,11.066 -28.232,26.153 -41,32 l 27,-40 14,8 m -432,2 v 1 h 3 l -3,-1 m -3,1 1,1 -1,-1 m -2.333,1.333 0.666,0.334 -0.666,-0.334 m 7.666,0.334 0.334,0.666 -0.334,-0.666 m -10.666,0.666 0.666,0.334 -0.666,-0.334 m -10.667,0.667 -1,3 h 1 v -3 m 5,0 1,1 -1,-1 m -6,5 1,1 -1,-1 m 18.667,0.333 0.666,0.334 -0.666,-0.334 m -16.667,1.667 1,1 -1,-1 m 2.667,1.333 0.666,0.334 -0.666,-0.334 m 7,0 0.666,0.334 -0.666,-0.334 m 2.333,-0.333 1,1 -1,-1 m 442,5 -1,1 1,-1 m -45,14 -4,3 v -1 l 4,-2 m 26,2 c -7.34,12.14 -25.966,19.926 -37,28.518 -7.568,5.893 -14.247,14.424 -23,18.482 11.764,-20.646 39.618,-35.698 60,-47 m -2,21 c 0,4.94 1.323,12.105 -0.603,16.715 -4.347,10.397 -20.276,21.509 -28.396,29.324 -18.164,17.481 -35.4,36.137 -52.537,54.675 -14.547,15.737 -27.596,32.844 -42.475,48.286 -4.713,4.891 -9.445,13.972 -15.99,16.397 -10.969,4.064 -29.365,-1.097 -40.999,-1.382 -42.604,-1.044 -85.47,-8.013 -128,-10.926 -44.746,-3.064 -88.63,3.993 -133,6.821 -9.906,0.631 -20.127,-2.144 -30,-2.821 -10.468,-0.716 -21.58,1.038 -32,2.08 -21.025,2.102 -41.950002,9.925 -63.000002,10.831 3.566,-12.123 17.861,-35.888 30,-40.802 6.55,-2.652 17.040002,0.791 24.000002,0.802 22.728,0.036 45.328,2 68,2 28.748,0 58.386,-1.447 87,-4.17 35.376,-3.366 69.24,-10.077 105,-6.66 29.956,2.862 60.356,4.633 90,9.583 11.85,1.979 33.443,9.361 45,5.604 8.518,-2.769 9.4,-12.22 11.749,-19.357 3.321,-10.087 9.304,-20.355 15.395,-29 23.899,-33.918 54.278,-66.957 90.856,-88 m 0,38 c -8.098,14.843 -23.108,27.38 -33.335,41 -29.942,39.876 -59.161,81.075 -82.974,125 -7.448,13.739 -18.518,27.865 -22.691,43 -45.764,0 -90.45,-20.737 -136,-25.833 -35.614,-3.985 -72.184,-9.275 -108,-10.152 -50.922,-1.248 -101.28,3.985 -152.000002,3.985 4.215,-12.844 14.270002,-15.644 27.000002,-16.691 20.583,-1.693 41.399,0.691 62,0.691 46.307,0 92.782,-0.984 139,1.039 22.394,0.981 44.654,4.412 67,6.05 16.947,1.242 35.548,3.922 52,8.197 5.977,1.553 17.388,6.833 23.424,4.246 5.152,-2.209 8.777,-9.296 12.127,-13.532 8.166,-10.327 16.392,-20.439 25.485,-30.004 29.059,-30.565 55.74,-63.366 84.679,-94.085 13.151,-13.96 26.624,-31.879 42.285,-42.911 m -83,10 c -3.766,8.056 -13.144,24.684 -21.09,28.972 -7.992,4.312 -25.146,1.032 -33.91,0.198 -25.955,-2.47 -52.001,-5.516 -78,-8 -19.797,-1.892 -41.271,1.55 -61,3.429 -28.451,2.709 -56.98,4.548 -85.17,9.48 -21.381,3.741 -42.235,9.8 -63.83,12.639 -38.399,5.05 -78.397,0.282 -117.000002,0.282 2.071,-4.468 5.587,-8.153 8.665,-12 4.134,-5.166 11.075002,-15.275 17.339002,-17.687 12.583,-4.844 30.435,8.29 42.996,9.168 11.122,0.778 22.395,-7.34 34,-7.477 12.97,-0.154 23.735,7.965 36,7.965 10.89,0 21.301,-8.427 32,-10.683 29.005,-6.115 58.598,-10.434 88,-14 66.137,-8.02 134.609,-2.286 201,-2.286 m -30,45 c -0.986,5.547 -6.151,24.973 -11.419,27.382 -6.081,2.781 -21.014,-1.917 -27.581,-2.971 -22.684,-3.644 -45.095,-6.744 -68,-8.322 -22.076,-1.52 -43.755,-4.619 -66,-4.074 -43.974,1.077 -87.974,8.018 -132,9.946 -42.925,1.879 -87.475,-5.856 -130.000002,2.039 2.317,-6.98 19.592,-5.648 26.000002,-6.089 27.506,-1.895 55.333,1.261 83,0.05 23.178,-1.015 45.412,-7.351 68,-11.957 24.583,-5.013 49.954,-8.198 75,-9.915 25.966,-1.779 52.972,-5.191 79,-4.05 34.715,1.523 69.043,7.961 104,7.961 m -39,88 c -3.542,5.029 -11.607,18.077 -17.185,20.396 -6.977,2.9 -20.779,-2.89 -27.815,-4.651 -17.605,-4.405 -36.96,-5.845 -55,-7.575 -88.899,-8.529 -178.966,-5.008 -268,-3.17 3.501,-11.787 12.733,-11.192 23,-12.17 20.271,-1.93 41.067,3.395 61,0.746 49.494,-6.578 101.16,-7.9 151,-4.487 44.232,3.03 88.636,10.911 133,10.911 m -386.000002,41 -1,1 1,-1 m 8,0 -4,2 4,-2 m 10.000002,0 v 1 h -3 l 3,-1"
       id="path179"
       sodipodi:nodetypes="cccccccccscssssccccccccscccccsccccccccccccccccccccccsccscccscscccccccccscccccsccccccsccccccccsccccscccccccccccccccccccccccccccccccccccccccccccccccccccccccccccccccccccccccccccccccccccccccscccccccscccccccsscccsccccscccccssccscccscccscccccccccsccccccccccccccccccccccccccccccccccc" /></g></svg>
